<svg xmlns="http://www.w3.org/2000/svg" width="512" height="512" viewBox="0 0 135.467 135.467" xmlns:v="https://vecta.io/nano"><path d="M19.05 92.066L5.015 53.978h8.449l10.962 29.43 10.613-29.43h5.586l-13.58 38.088zm26.218-38.088h7.89v23.391c0 4.224.698 6.947 2.164 8.449 1.466 1.362 3.317 2.06 5.586 2.06s3.98-.698 5.376-2.06c1.362-1.362 1.955-3.98 1.955-7.855V54.013h6.843v23.391c0 4.434-.559 7.541-1.711 9.461-1.152 1.955-2.723 3.421-4.783 4.573s-4.783 1.606-7.995 1.606c-3.177 0-5.83-.454-8.099-1.466s-4.12-2.514-5.376-4.573c-1.362-2.06-1.955-5.237-1.955-9.566V54.048h.105z"/><path d="M91.002 71.539c0-.105.105-.349.349-.349.105 0 .349.105.349.349 0 .105-.105.349-.349.349a.31.31 0 0 1-.349-.349m18.817 9.217c-.454-1.257-1.711-2.06-3.317-1.955-.908-1.711-2.409-.908-2.863-.454.454.454.803.559 1.362.698v.349c-1.012 0-1.362-.454-2.06-1.257-.349 2.514 2.618 3.421 3.526 1.362 1.362 0 2.269.559 2.514 1.466a2.19 2.19 0 0 1-.454 2.269c-.803 1.012-2.164 1.012-3.421.349-.803-.349-1.606-1.152-2.269-1.955-1.012-1.152-1.606-1.711-2.409-2.06-.454-.244-.908-.349-1.257-.349-.244 0-.454-.105-.803-.105-.244 0-.454 0-.698.105-1.815.244-3.666 1.012-5.83 1.257h-1.047a19.5 19.5 0 0 1-1.955 1.711l-1.362 1.152h0c-.559.559-.908.803-.908.803l.244 3.072v1.815c0 .454-.105.803-.244 1.152s-.349.559-.803.559c-.349.105-1.257-.559-1.606-.105-.244.349 0 1.152.349 1.362h2.514c.349-.559.454-1.012.559-1.362.244-.349.349-.803.559-1.012.244-.349.349-.698.454-1.012 0-.349.105-.559.244-.803l.559-1.152c0-.105.105-.105.105-.244.105.105.244.349.244.454.559.908 1.152 1.606 1.955 1.955.349.105.559.349.698.454.105.105.105.454.105.803s-.105.698-.454.803c-.559.244-1.362-.559-1.711-.105-.349.349 0 .908.349 1.362h2.269c.559-.908.803-2.06.803-3.072s0-1.257-.698-1.606c-.244-.105-.454-.698-.559-1.152v-.349c1.012-.349 2.269-1.012 3.526-1.955v.559c.244 1.466.349 2.723 1.466 3.77.349.349.559.559.559.803 0 .105-.105.559-.349.803-.244.559-.803 1.012-1.257 1.012-.559.105-1.152-.698-1.606-.244-.349.349.105 1.152.349 1.362h2.269l2.164-3.317c.244-.559.244-.803-.244-.908-.803-.454-.698-1.362-.454-2.409 0-.244.105-.349.244-.559.559 1.606 1.362 3.072 3.072 3.526.349 0 .698.244.803.349v.698c-.105.454-.349 1.152-.803 1.362-.454.349-1.466-.803-1.815-.105-.244.454.244 1.152.349 1.362h2.269l1.362-3.526c.105-1.012.105-1.466-.698-1.606-.454 0-.803-.244-.908-.803-.349-1.012-.244-2.863-1.012-3.98.908 1.012 1.815 1.815 2.723 2.269 1.955 1.012 3.98.698 4.888-.698.663-1.012.663-2.164.419-2.967m19.271-26.567c-1.711-.244-5.586.244-9.007.908l3.421-1.711c.244-.105.349-.454.349-.908s-.454-.559-1.012-.454c-.559 0-1.711.454-3.177.908-2.863 1.152-6.947 3.072-11.87 6.389-4.329 2.967-7.192 5.481-10.264 8.553-.803.803-1.711 1.815-2.723 2.967-.105-.244-.244-.349-.559-.244 1.152-2.514 1.257-2.618 1.815-3.98.244-.698.105-1.152-.105-1.466-.349-.559-.803-.244-1.152 0l-1.606 1.955c1.257-4.224 1.955-4.573 3.072-6.947.105-.349.105-.803 0-1.152s-.349-.454-.559-.349c-.454.244-.559.454-1.466 1.466 1.257-2.409 2.967-5.237 3.177-5.691.244-.454.454-.559 0-1.362-.454-.698-.803-.105-1.152.105-.244.105-.803.698-1.606 1.711 1.815-3.421 3.526-5.027 3.875-5.586.454-.698.454-.803.105-1.606-.349-.698-.908-.349-1.152 0-1.257 1.257-1.257.908-3.421 3.526 1.152-2.967 3.072-5.237 3.77-6.389.349-.454.349-.698 0-1.711-.105-.454-.559-.698-1.012-.698-.559.244-1.152.559-2.269 1.606-2.409 2.164-5.586 5.237-8.204 10.822-2.514 5.237-3.072 10.159-3.072 13.58 0 5.237 1.362 9.81 2.618 12.778v-.349c-.105-1.362.105-3.072.454-3.875.559-2.06 1.257-3.177 1.815-4.12l-1.012-1.362 1.362.454-.803-1.815s1.012.105 1.815 1.152c.454-.454 1.466-.803 2.409-.105.698 0 1.012.105 1.362.244.698.454.559 1.152.559 1.362-.349-.349-1.466-1.012-2.514-.105l2.06.698-2.618.244v2.723l-3.177 2.863v1.012l2.164-1.955v1.012l-3.77 3.421v1.012l4.783-4.329h0l1.257-1.012h0c.698-.559 1.012-.908 1.466-1.152.454-.349.559 0 .698.559.105.454.698.908 1.815-.105 3.317-3.072 6.843-4.678 10.613-6.493-2.06 1.362-5.691 3.421-6.947 4.783-.559.698 0 2.164.908 1.466 1.606-1.012 3.666-1.257 4.783-1.152.454 0 1.012-.349 1.362-.803.349-.349.349-.803-.349-.803 3.421-1.012 4.329-1.362 7.192-1.606.803 0 1.257-.454 1.362-1.152.105-.559-.105-.803-.908-.803-.803-.105-2.269.105-3.77.349 3.317-1.362 7.296-2.164 10.473-3.072 1.012-.349 1.152-.559 1.152-1.152.105-.698-.349-.698-1.466-.698-2.269.105-5.691.349-10.962 1.815 4.888-2.514 7.75-3.666 12.184-4.783 1.257-.349 1.362-.698 1.466-1.257.244-.698-.349-.698-.803-.698-.698 0-2.164 0-5.237.908 2.967-1.257 6.284-2.863 8.553-3.526.454-.244.803-.454.803-1.012 0-.454-.105-.454-.559-.454-1.012 0-2.618.349-4.573.908 3.98-1.711 5.237-2.269 7.995-2.723.908-.244 1.012-.454 1.152-1.012-.314-.524-.803-.524-1.362-.524M89.082 67.873c0-.349-.244-.559-.454-.698.559-1.466 1.152-2.514 2.269-4.12-1.012 2.095-1.501 3.91-1.815 4.818m-3.666-1.257c.803-8.553 4.678-14.837 7.296-17.805-3.77 5.725-5.935 13.615-7.296 17.805M99.66 69.13c5.027-4.783 11.87-9.81 20.528-11.87-7.296 2.514-17.316 9.356-20.528 11.87" fill="#0089cf"/></svg>