<?xml version="1.0" encoding="UTF-8"?>
<svg xmlns="http://www.w3.org/2000/svg" xmlns:xlink="http://www.w3.org/1999/xlink" width="736px" height="736px" viewBox="0 0 736 736" version="1.1">
<g id="surface1">
<path style=" stroke:none;fill-rule:evenodd;fill:rgb(7.058824%,67.058824%,85.882353%);fill-opacity:1;" d="M 458.886719 545.1875 C 463.152344 609.996094 506.296875 656.757812 573.339844 655.792969 C 523.070312 709.621094 426.984375 735.542969 347.621094 735.542969 C 304.285156 735.542969 268.023438 725.582031 251.625 707.027344 C 318.292969 697.828125 371.652344 643.085938 378.914062 581.9375 C 468.492188 474.382812 505.035156 307.515625 615.035156 307.515625 C 715.714844 307.515625 729.300781 385.332031 735.671875 427.367188 C 734.78125 523.6875 663.804688 604.914062 571.886719 604.914062 C 528.597656 604.914062 491.589844 588.191406 458.886719 545.1875 Z M 458.886719 545.1875 "/>
<path style=" stroke:none;fill-rule:evenodd;fill:rgb(0%,43.921569%,67.843137%);fill-opacity:1;" d="M 735.71875 429.402344 C 729.300781 387.316406 715.714844 309.546875 615.035156 309.546875 C 505.035156 309.546875 468.539062 476.367188 378.867188 583.921875 C 350.523438 617.875 316.464844 645.777344 275.050781 660.519531 C 228.484375 677.496094 181.929688 676.445312 135.394531 657.367188 C 55.09375 622.09375 0.421875 534.3125 0.421875 440.378906 C 0.421875 200.164062 305.738281 114.617188 393.90625 0.0507812 L 393.953125 0.0507812 C 395.390625 0.660156 396.84375 1.289062 398.3125 1.929688 C 399.75 2.542969 401.199219 3.167969 402.667969 3.8125 C 404.105469 4.457031 405.542969 5.101562 406.976562 5.742188 C 408.414062 6.386719 409.851562 7.046875 411.289062 7.726562 C 482.921875 40.257812 551.226562 83.511719 608.710938 140.492188 C 684.417969 215.871094 733.5625 310.359375 735.53125 422.335938 C 735.671875 426.351562 735.71875 429.300781 735.71875 429.402344 Z M 735.71875 429.402344 "/>
</g>
</svg>
